<?xml version="1.0" encoding="UTF-8"?>
<svg xmlns="http://www.w3.org/2000/svg" xmlns:xlink="http://www.w3.org/1999/xlink" width="34pt" height="39pt" viewBox="0 0 34 39" version="1.1">
<g id="surface1">
<path style=" stroke:none;fill-rule:nonzero;fill:rgb(0%,0%,0%);fill-opacity:1;" d="M 12.472656 4.65625 C 12.472656 7.101562 10.496094 9.078125 8.050781 9.078125 C 5.609375 9.078125 3.632812 7.101562 3.632812 4.65625 C 3.632812 2.214844 5.609375 0.238281 8.050781 0.238281 C 10.496094 0.238281 12.472656 2.214844 12.472656 4.65625 "/>
<path style="fill:none;stroke-width:4;stroke-linecap:butt;stroke-linejoin:miter;stroke:rgb(100%,100%,100%);stroke-opacity:1;stroke-miterlimit:4;" d="M 124.726562 343.4375 C 124.726562 318.984375 104.960938 299.21875 80.507812 299.21875 C 56.09375 299.21875 36.328125 318.984375 36.328125 343.4375 C 36.328125 367.851562 56.09375 387.617188 80.507812 387.617188 C 104.960938 387.617188 124.726562 367.851562 124.726562 343.4375 Z M 124.726562 343.4375 " transform="matrix(0.1,0,0,-0.1,0,39)"/>
<path style="fill-rule:nonzero;fill:rgb(0%,0%,0%);fill-opacity:1;stroke-width:4;stroke-linecap:butt;stroke-linejoin:miter;stroke:rgb(100%,100%,100%);stroke-opacity:1;stroke-miterlimit:4;" d="M 149.023438 7.03125 L 332.851562 7.03125 L 332.851562 202.460938 L 149.023438 202.460938 Z M 149.023438 7.03125 " transform="matrix(0.1,0,0,-0.1,0,39)"/>
<path style="fill-rule:nonzero;fill:rgb(0%,0%,0%);fill-opacity:1;stroke-width:4;stroke-linecap:butt;stroke-linejoin:miter;stroke:rgb(100%,100%,100%);stroke-opacity:1;stroke-miterlimit:4;" d="M 213.359375 203.007812 L 320.3125 203.007812 L 320.3125 227.382812 L 213.359375 227.382812 Z M 213.359375 203.007812 " transform="matrix(0.1,0,0,-0.1,0,39)"/>
<path style=" stroke:none;fill-rule:nonzero;fill:rgb(0%,0%,0%);fill-opacity:1;" d="M 29.867188 10.042969 L 29.867188 16.261719 L 21.539062 16.261719 L 21.539062 7.933594 L 28.890625 8.894531 C 28.890625 8.894531 29.886719 8.992188 29.867188 10.042969 "/>
<path style="fill:none;stroke-width:4;stroke-linecap:butt;stroke-linejoin:miter;stroke:rgb(100%,100%,100%);stroke-opacity:1;stroke-miterlimit:4;" d="M 298.671875 289.570312 L 298.671875 227.382812 L 215.390625 227.382812 L 215.390625 310.664062 L 288.90625 301.054688 C 288.90625 301.054688 298.867188 300.078125 298.671875 289.570312 Z M 298.671875 289.570312 " transform="matrix(0.1,0,0,-0.1,0,39)"/>
<path style=" stroke:none;fill-rule:nonzero;fill:rgb(0%,0%,0%);fill-opacity:1;" d="M 13.808594 35.773438 L 8.730469 35.773438 L 8.730469 29.769531 L 6.183594 29.769531 L 6.183594 35.773438 L 1.1875 35.773438 C 0.746094 35.773438 0.390625 36.128906 0.390625 36.570312 L 0.390625 37.496094 C 0.390625 37.9375 0.746094 38.289062 1.1875 38.289062 L 13.808594 38.289062 C 14.246094 38.289062 14.601562 37.9375 14.601562 37.496094 L 14.601562 36.570312 C 14.601562 36.128906 14.246094 35.773438 13.808594 35.773438 "/>
<path style="fill:none;stroke-width:4;stroke-linecap:butt;stroke-linejoin:miter;stroke:rgb(100%,100%,100%);stroke-opacity:1;stroke-miterlimit:4;" d="M 138.085938 32.265625 L 87.304688 32.265625 L 87.304688 92.304688 L 61.835938 92.304688 L 61.835938 32.265625 L 11.875 32.265625 C 7.460938 32.265625 3.90625 28.710938 3.90625 24.296875 L 3.90625 15.039062 C 3.90625 10.625 7.460938 7.109375 11.875 7.109375 L 138.085938 7.109375 C 142.460938 7.109375 146.015625 10.625 146.015625 15.039062 L 146.015625 24.296875 C 146.015625 28.710938 142.460938 32.265625 138.085938 32.265625 Z M 138.085938 32.265625 " transform="matrix(0.1,0,0,-0.1,0,39)"/>
<path style=" stroke:none;fill-rule:nonzero;fill:rgb(0%,0%,0%);fill-opacity:1;" d="M 14.03125 26.964844 L 3.566406 26.964844 L 3.566406 12.09375 C 3.566406 11.609375 3.171875 11.21875 2.691406 11.21875 L 1.664062 11.21875 C 1.183594 11.21875 0.789062 11.609375 0.789062 12.09375 L 0.789062 28.863281 C 0.789062 29.34375 1.183594 29.738281 1.664062 29.738281 L 14.03125 29.738281 C 14.515625 29.738281 14.90625 29.34375 14.90625 28.863281 L 14.90625 27.839844 C 14.90625 27.355469 14.515625 26.964844 14.03125 26.964844 "/>
<path style="fill:none;stroke-width:4;stroke-linecap:butt;stroke-linejoin:miter;stroke:rgb(100%,100%,100%);stroke-opacity:1;stroke-miterlimit:4;" d="M 140.3125 120.351562 L 35.664062 120.351562 L 35.664062 269.0625 C 35.664062 273.90625 31.71875 277.8125 26.914062 277.8125 L 16.640625 277.8125 C 11.835938 277.8125 7.890625 273.90625 7.890625 269.0625 L 7.890625 101.367188 C 7.890625 96.5625 11.835938 92.617188 16.640625 92.617188 L 140.3125 92.617188 C 145.15625 92.617188 149.0625 96.5625 149.0625 101.367188 L 149.0625 111.601562 C 149.0625 116.445312 145.15625 120.351562 140.3125 120.351562 Z M 140.3125 120.351562 " transform="matrix(0.1,0,0,-0.1,0,39)"/>
<path style=" stroke:none;fill-rule:nonzero;fill:rgb(0%,0%,0%);fill-opacity:1;" d="M 11.574219 10.03125 L 19.605469 15.855469 C 19.949219 16.152344 20.164062 16.589844 20.164062 17.074219 C 20.164062 17.964844 19.441406 18.6875 18.550781 18.6875 C 18.28125 18.6875 17.921875 18.597656 17.636719 18.4375 L 10.914062 14.28125 L 10.914062 21.828125 L 14.710938 21.847656 L 14.710938 26.703125 L 3.96875 26.683594 L 3.96875 10.660156 C 3.96875 10.660156 4.039062 9.394531 6.121094 9.394531 L 9.988281 9.394531 C 9.988281 9.394531 10.726562 9.429688 11.574219 10.03125 "/>
<path style="fill:none;stroke-width:1;stroke-linecap:butt;stroke-linejoin:miter;stroke:rgb(100%,100%,100%);stroke-opacity:1;stroke-miterlimit:4;" d="M 115.742188 289.6875 L 196.054688 231.445312 C 199.492188 228.476562 201.640625 224.101562 201.640625 219.257812 C 201.640625 210.351562 194.414062 203.125 185.507812 203.125 C 182.8125 203.125 179.21875 204.023438 176.367188 205.625 L 109.140625 247.1875 L 109.140625 171.71875 L 147.109375 171.523438 L 147.109375 122.96875 L 39.6875 123.164062 L 39.6875 283.398438 C 39.6875 283.398438 40.390625 296.054688 61.210938 296.054688 L 99.882812 296.054688 C 99.882812 296.054688 107.265625 295.703125 115.742188 289.6875 Z M 115.742188 289.6875 " transform="matrix(0.1,0,0,-0.1,0,39)"/>
</g>
</svg>
