<?xml version="1.0" encoding="UTF-8"?>
<svg xmlns="http://www.w3.org/2000/svg" xmlns:xlink="http://www.w3.org/1999/xlink" width="28pt" height="41pt" viewBox="0 0 28 41" version="1.1">
<g id="surface1">
<path style=" stroke:none;fill-rule:nonzero;fill:rgb(0%,0%,0%);fill-opacity:1;" d="M 6.65625 39.792969 L 22.042969 39.792969 L 22.042969 5.613281 L 6.65625 5.613281 Z M 6.65625 39.792969 "/>
<path style="fill:none;stroke-width:4;stroke-linecap:butt;stroke-linejoin:miter;stroke:rgb(100%,100%,100%);stroke-opacity:1;stroke-miterlimit:4;" d="M 220.429688 353.867188 L 66.5625 353.867188 L 66.5625 12.070312 L 220.429688 12.070312 " transform="matrix(0.1,0,0,-0.1,0,41)"/>
<path style=" stroke:none;fill-rule:nonzero;fill:rgb(0%,0%,0%);fill-opacity:1;" d="M 22.042969 39.792969 L 26.960938 34.878906 L 26.960938 0.699219 L 11.570312 0.699219 L 6.65625 5.613281 L 22.042969 5.613281 L 22.042969 39.792969 "/>
<path style="fill:none;stroke-width:4;stroke-linecap:butt;stroke-linejoin:miter;stroke:rgb(100%,100%,100%);stroke-opacity:1;stroke-miterlimit:4;" d="M 220.429688 12.070312 L 269.609375 61.210938 L 269.609375 403.007812 L 115.703125 403.007812 L 66.5625 353.867188 L 220.429688 353.867188 Z M 220.429688 12.070312 " transform="matrix(0.1,0,0,-0.1,0,41)"/>
<path style="fill-rule:nonzero;fill:rgb(0%,0%,0%);fill-opacity:1;stroke-width:4;stroke-linecap:butt;stroke-linejoin:miter;stroke:rgb(100%,100%,100%);stroke-opacity:1;stroke-miterlimit:4;" d="M 220.429688 353.867188 L 269.609375 403.007812 " transform="matrix(0.1,0,0,-0.1,0,41)"/>
<path style="fill:none;stroke-width:4;stroke-linecap:butt;stroke-linejoin:miter;stroke:rgb(100%,100%,100%);stroke-opacity:1;stroke-miterlimit:4;" d="M 79.882812 197.539062 L 157.382812 197.539062 L 157.382812 208.789062 L 79.882812 208.789062 Z M 79.882812 197.539062 " transform="matrix(0.1,0,0,-0.1,0,41)"/>
<path style="fill:none;stroke-width:4;stroke-linecap:butt;stroke-linejoin:miter;stroke:rgb(100%,100%,100%);stroke-opacity:1;stroke-miterlimit:4;" d="M 79.882812 174.21875 L 157.382812 174.21875 L 157.382812 185.46875 L 79.882812 185.46875 Z M 79.882812 174.21875 " transform="matrix(0.1,0,0,-0.1,0,41)"/>
<path style="fill:none;stroke-width:4;stroke-linecap:butt;stroke-linejoin:miter;stroke:rgb(100%,100%,100%);stroke-opacity:1;stroke-miterlimit:4;" d="M 79.882812 150.859375 L 157.382812 150.859375 L 157.382812 162.109375 L 79.882812 162.109375 Z M 79.882812 150.859375 " transform="matrix(0.1,0,0,-0.1,0,41)"/>
<path style="fill:none;stroke-width:4;stroke-linecap:butt;stroke-linejoin:miter;stroke:rgb(100%,100%,100%);stroke-opacity:1;stroke-miterlimit:4;" d="M 79.882812 127.539062 L 157.382812 127.539062 L 157.382812 138.789062 L 79.882812 138.789062 Z M 79.882812 127.539062 " transform="matrix(0.1,0,0,-0.1,0,41)"/>
<path style="fill:none;stroke-width:4;stroke-linecap:butt;stroke-linejoin:miter;stroke:rgb(100%,100%,100%);stroke-opacity:1;stroke-miterlimit:4;" d="M 79.882812 104.21875 L 157.382812 104.21875 L 157.382812 115.46875 L 79.882812 115.46875 Z M 79.882812 104.21875 " transform="matrix(0.1,0,0,-0.1,0,41)"/>
<path style="fill:none;stroke-width:4;stroke-linecap:butt;stroke-linejoin:miter;stroke:rgb(100%,100%,100%);stroke-opacity:1;stroke-miterlimit:4;" d="M 79.882812 80.898438 L 157.382812 80.898438 L 157.382812 92.148438 L 79.882812 92.148438 Z M 79.882812 80.898438 " transform="matrix(0.1,0,0,-0.1,0,41)"/>
<path style="fill:none;stroke-width:4;stroke-linecap:butt;stroke-linejoin:miter;stroke:rgb(100%,100%,100%);stroke-opacity:1;stroke-miterlimit:4;" d="M 79.882812 57.539062 L 157.382812 57.539062 L 157.382812 68.789062 L 79.882812 68.789062 Z M 79.882812 57.539062 " transform="matrix(0.1,0,0,-0.1,0,41)"/>
<path style="fill:none;stroke-width:4;stroke-linecap:butt;stroke-linejoin:miter;stroke:rgb(100%,100%,100%);stroke-opacity:1;stroke-miterlimit:4;" d="M 79.882812 34.21875 L 157.382812 34.21875 L 157.382812 45.46875 L 79.882812 45.46875 Z M 79.882812 34.21875 " transform="matrix(0.1,0,0,-0.1,0,41)"/>
<path style=" stroke:none;fill-rule:nonzero;fill:rgb(0%,0%,0%);fill-opacity:1;" d="M 16.671875 9.59375 C 16.671875 11.183594 13.1875 12.472656 8.890625 12.472656 C 4.59375 12.472656 1.113281 11.183594 1.113281 9.59375 L 1.113281 16.234375 C 1.113281 17.824219 4.59375 19.113281 8.890625 19.113281 C 13.1875 19.113281 16.671875 17.824219 16.671875 16.234375 L 16.671875 9.59375 "/>
<path style="fill:none;stroke-width:4;stroke-linecap:butt;stroke-linejoin:miter;stroke:rgb(100%,100%,100%);stroke-opacity:1;stroke-miterlimit:4;" d="M 166.71875 314.0625 C 166.71875 298.164062 131.875 285.273438 88.90625 285.273438 C 45.9375 285.273438 11.132812 298.164062 11.132812 314.0625 L 11.132812 247.65625 C 11.132812 231.757812 45.9375 218.867188 88.90625 218.867188 C 131.875 218.867188 166.71875 231.757812 166.71875 247.65625 Z M 166.71875 314.0625 " transform="matrix(0.1,0,0,-0.1,0,41)"/>
<path style=" stroke:none;fill-rule:nonzero;fill:rgb(0%,0%,0%);fill-opacity:1;" d="M 8.890625 12.472656 C 13.1875 12.472656 16.671875 11.183594 16.671875 9.59375 C 16.671875 8 13.1875 6.710938 8.890625 6.710938 C 4.59375 6.710938 1.113281 8 1.113281 9.59375 C 1.113281 11.183594 4.59375 12.472656 8.890625 12.472656 "/>
<path style="fill:none;stroke-width:4;stroke-linecap:butt;stroke-linejoin:miter;stroke:rgb(100%,100%,100%);stroke-opacity:1;stroke-miterlimit:4;" d="M 88.90625 285.273438 C 131.875 285.273438 166.71875 298.164062 166.71875 314.0625 C 166.71875 330 131.875 342.890625 88.90625 342.890625 C 45.9375 342.890625 11.132812 330 11.132812 314.0625 C 11.132812 298.164062 45.9375 285.273438 88.90625 285.273438 Z M 88.90625 285.273438 " transform="matrix(0.1,0,0,-0.1,0,41)"/>
<path style=" stroke:none;fill-rule:nonzero;fill:rgb(0%,0%,0%);fill-opacity:1;" d="M 25.007812 15.59375 C 25.007812 17.183594 21.523438 18.472656 17.222656 18.472656 C 12.925781 18.472656 9.445312 17.183594 9.445312 15.59375 L 9.445312 22.234375 C 9.445312 23.824219 12.925781 25.113281 17.222656 25.113281 C 21.523438 25.113281 25.007812 23.824219 25.007812 22.234375 L 25.007812 15.59375 "/>
<path style="fill:none;stroke-width:4;stroke-linecap:butt;stroke-linejoin:miter;stroke:rgb(100%,100%,100%);stroke-opacity:1;stroke-miterlimit:4;" d="M 250.078125 254.0625 C 250.078125 238.164062 215.234375 225.273438 172.226562 225.273438 C 129.257812 225.273438 94.453125 238.164062 94.453125 254.0625 L 94.453125 187.65625 C 94.453125 171.757812 129.257812 158.867188 172.226562 158.867188 C 215.234375 158.867188 250.078125 171.757812 250.078125 187.65625 Z M 250.078125 254.0625 " transform="matrix(0.1,0,0,-0.1,0,41)"/>
<path style=" stroke:none;fill-rule:nonzero;fill:rgb(0%,0%,0%);fill-opacity:1;" d="M 17.222656 18.472656 C 21.523438 18.472656 25.007812 17.183594 25.007812 15.59375 C 25.007812 14 21.523438 12.710938 17.222656 12.710938 C 12.925781 12.710938 9.445312 14 9.445312 15.59375 C 9.445312 17.183594 12.925781 18.472656 17.222656 18.472656 "/>
<path style="fill:none;stroke-width:4;stroke-linecap:butt;stroke-linejoin:miter;stroke:rgb(100%,100%,100%);stroke-opacity:1;stroke-miterlimit:4;" d="M 172.226562 225.273438 C 215.234375 225.273438 250.078125 238.164062 250.078125 254.0625 C 250.078125 270 215.234375 282.890625 172.226562 282.890625 C 129.257812 282.890625 94.453125 270 94.453125 254.0625 C 94.453125 238.164062 129.257812 225.273438 172.226562 225.273438 Z M 172.226562 225.273438 " transform="matrix(0.1,0,0,-0.1,0,41)"/>
</g>
</svg>
